<?xml version="1.0" standalone="no"?><!DOCTYPE svg PUBLIC "-//W3C//DTD SVG 1.1//EN" "http://www.w3.org/Graphics/SVG/1.1/DTD/svg11.dtd"><svg t="1688433504669" class="icon" viewBox="0 0 1024 1024" version="1.1" xmlns="http://www.w3.org/2000/svg" p-id="4950" xmlns:xlink="http://www.w3.org/1999/xlink" width="200" height="200"><path d="M512 512m-102.4 0a102.4 102.4 0 1 0 204.8 0 102.4 102.4 0 1 0-204.8 0Z" fill="#ffffff" p-id="4951"></path><path d="M972.8 460.8h-54.784A409.6 409.6 0 0 0 563.2 105.984V51.2a51.2 51.2 0 0 0-102.4 0v54.784A409.6 409.6 0 0 0 105.984 460.8H51.2a51.2 51.2 0 0 0 0 102.4h54.784A409.6 409.6 0 0 0 460.8 918.016V972.8a51.2 51.2 0 0 0 102.4 0v-54.784A409.6 409.6 0 0 0 918.016 563.2H972.8a51.2 51.2 0 0 0 0-102.4z m-460.8 358.4a307.2 307.2 0 1 1 307.2-307.2 307.2 307.2 0 0 1-307.2 307.2z" fill="#ffffff" p-id="4952"></path></svg>